<?xml version="1.0" encoding="UTF-8"?>
<svg xmlns="http://www.w3.org/2000/svg" xmlns:xlink="http://www.w3.org/1999/xlink" width="720" height="432" viewBox="0 0 720 432">
<defs>
<g>
<g id="glyph-0-0">
<path d="M 0.28125 0 L 0.28125 -6.3125 L 5.296875 -6.3125 L 5.296875 0 Z M 4.5 -0.796875 L 4.5 -5.515625 L 1.078125 -5.515625 L 1.078125 -0.796875 Z M 4.5 -0.796875 "/>
</g>
<g id="glyph-0-1">
<path d="M 2.375 -6.15625 C 3.175781 -6.15625 3.753906 -5.828125 4.109375 -5.171875 C 4.378906 -4.660156 4.515625 -3.960938 4.515625 -3.078125 C 4.515625 -2.242188 4.390625 -1.554688 4.140625 -1.015625 C 3.785156 -0.222656 3.195312 0.171875 2.375 0.171875 C 1.632812 0.171875 1.082031 -0.148438 0.71875 -0.796875 C 0.425781 -1.328125 0.28125 -2.046875 0.28125 -2.953125 C 0.28125 -3.648438 0.367188 -4.25 0.546875 -4.75 C 0.878906 -5.6875 1.488281 -6.15625 2.375 -6.15625 Z M 2.375 -0.53125 C 2.769531 -0.53125 3.085938 -0.707031 3.328125 -1.0625 C 3.566406 -1.425781 3.6875 -2.085938 3.6875 -3.046875 C 3.6875 -3.753906 3.597656 -4.332031 3.421875 -4.78125 C 3.253906 -5.226562 2.921875 -5.453125 2.421875 -5.453125 C 1.972656 -5.453125 1.640625 -5.238281 1.421875 -4.8125 C 1.210938 -4.382812 1.109375 -3.753906 1.109375 -2.921875 C 1.109375 -2.296875 1.175781 -1.789062 1.3125 -1.40625 C 1.519531 -0.820312 1.875 -0.53125 2.375 -0.53125 Z M 2.375 -0.53125 "/>
</g>
<g id="glyph-0-2">
<path d="M 0.75 -0.9375 L 1.65625 -0.9375 L 1.65625 0 L 0.75 0 Z M 0.75 -0.9375 "/>
</g>
<g id="glyph-0-3">
<path d="M 0.28125 0 C 0.300781 -0.53125 0.40625 -0.988281 0.59375 -1.375 C 0.789062 -1.769531 1.164062 -2.128906 1.71875 -2.453125 L 2.546875 -2.921875 C 2.910156 -3.140625 3.164062 -3.328125 3.3125 -3.484375 C 3.550781 -3.710938 3.671875 -3.984375 3.671875 -4.296875 C 3.671875 -4.648438 3.5625 -4.929688 3.34375 -5.140625 C 3.132812 -5.359375 2.847656 -5.46875 2.484375 -5.46875 C 1.960938 -5.46875 1.597656 -5.265625 1.390625 -4.859375 C 1.285156 -4.648438 1.226562 -4.351562 1.21875 -3.96875 L 0.421875 -3.96875 C 0.429688 -4.5 0.53125 -4.9375 0.71875 -5.28125 C 1.050781 -5.875 1.644531 -6.171875 2.5 -6.171875 C 3.195312 -6.171875 3.707031 -5.976562 4.03125 -5.59375 C 4.363281 -5.21875 4.53125 -4.796875 4.53125 -4.328125 C 4.53125 -3.835938 4.351562 -3.414062 4 -3.0625 C 3.800781 -2.863281 3.441406 -2.617188 2.921875 -2.328125 L 2.34375 -2 C 2.0625 -1.84375 1.835938 -1.695312 1.671875 -1.5625 C 1.390625 -1.3125 1.210938 -1.035156 1.140625 -0.734375 L 4.5 -0.734375 L 4.5 0 Z M 0.28125 0 "/>
</g>
<g id="glyph-0-4">
<path d="M 1.09375 -1.5625 C 1.132812 -1.125 1.335938 -0.820312 1.703125 -0.65625 C 1.878906 -0.570312 2.09375 -0.53125 2.34375 -0.53125 C 2.800781 -0.53125 3.140625 -0.675781 3.359375 -0.96875 C 3.578125 -1.257812 3.6875 -1.582031 3.6875 -1.9375 C 3.6875 -2.363281 3.554688 -2.691406 3.296875 -2.921875 C 3.035156 -3.160156 2.71875 -3.28125 2.34375 -3.28125 C 2.082031 -3.28125 1.851562 -3.226562 1.65625 -3.125 C 1.46875 -3.019531 1.304688 -2.878906 1.171875 -2.703125 L 0.5 -2.734375 L 0.96875 -6.046875 L 4.171875 -6.046875 L 4.171875 -5.296875 L 1.5625 -5.296875 L 1.296875 -3.59375 C 1.429688 -3.695312 1.566406 -3.773438 1.703125 -3.828125 C 1.929688 -3.929688 2.195312 -3.984375 2.5 -3.984375 C 3.0625 -3.984375 3.535156 -3.800781 3.921875 -3.4375 C 4.316406 -3.070312 4.515625 -2.609375 4.515625 -2.046875 C 4.515625 -1.460938 4.332031 -0.945312 3.96875 -0.5 C 3.613281 -0.0625 3.046875 0.15625 2.265625 0.15625 C 1.753906 0.15625 1.304688 0.0117188 0.921875 -0.265625 C 0.546875 -0.546875 0.332031 -0.976562 0.28125 -1.5625 Z M 1.09375 -1.5625 "/>
</g>
<g id="glyph-0-5">
<path d="M 4.59375 -6.046875 L 4.59375 -5.375 C 4.394531 -5.175781 4.128906 -4.835938 3.796875 -4.359375 C 3.472656 -3.890625 3.1875 -3.378906 2.9375 -2.828125 C 2.6875 -2.296875 2.5 -1.8125 2.375 -1.375 C 2.289062 -1.082031 2.179688 -0.625 2.046875 0 L 1.203125 0 C 1.390625 -1.175781 1.816406 -2.34375 2.484375 -3.5 C 2.878906 -4.1875 3.289062 -4.773438 3.71875 -5.265625 L 0.328125 -5.265625 L 0.328125 -6.046875 Z M 4.59375 -6.046875 "/>
</g>
<g id="glyph-0-6">
<path d="M 0.84375 -4.359375 L 0.84375 -4.953125 C 1.394531 -5.003906 1.78125 -5.09375 2 -5.21875 C 2.226562 -5.34375 2.394531 -5.644531 2.5 -6.125 L 3.109375 -6.125 L 3.109375 0 L 2.296875 0 L 2.296875 -4.359375 Z M 0.84375 -4.359375 "/>
</g>
<g id="glyph-0-7">
<path d="M 2.28125 0.171875 C 1.550781 0.171875 1.019531 -0.0234375 0.6875 -0.421875 C 0.363281 -0.828125 0.203125 -1.316406 0.203125 -1.890625 L 1.015625 -1.890625 C 1.046875 -1.492188 1.117188 -1.203125 1.234375 -1.015625 C 1.441406 -0.691406 1.804688 -0.53125 2.328125 -0.53125 C 2.734375 -0.53125 3.054688 -0.640625 3.296875 -0.859375 C 3.546875 -1.078125 3.671875 -1.359375 3.671875 -1.703125 C 3.671875 -2.128906 3.539062 -2.425781 3.28125 -2.59375 C 3.03125 -2.757812 2.671875 -2.84375 2.203125 -2.84375 C 2.148438 -2.84375 2.097656 -2.84375 2.046875 -2.84375 C 1.992188 -2.84375 1.941406 -2.84375 1.890625 -2.84375 L 1.890625 -3.515625 C 1.972656 -3.515625 2.039062 -3.507812 2.09375 -3.5 C 2.144531 -3.5 2.203125 -3.5 2.265625 -3.5 C 2.554688 -3.5 2.796875 -3.546875 2.984375 -3.640625 C 3.304688 -3.796875 3.46875 -4.082031 3.46875 -4.5 C 3.46875 -4.800781 3.359375 -5.035156 3.140625 -5.203125 C 2.921875 -5.367188 2.671875 -5.453125 2.390625 -5.453125 C 1.867188 -5.453125 1.507812 -5.28125 1.3125 -4.9375 C 1.207031 -4.75 1.144531 -4.476562 1.125 -4.125 L 0.359375 -4.125 C 0.359375 -4.582031 0.453125 -4.972656 0.640625 -5.296875 C 0.953125 -5.867188 1.503906 -6.15625 2.296875 -6.15625 C 2.929688 -6.15625 3.421875 -6.015625 3.765625 -5.734375 C 4.109375 -5.460938 4.28125 -5.0625 4.28125 -4.53125 C 4.28125 -4.144531 4.175781 -3.835938 3.96875 -3.609375 C 3.84375 -3.460938 3.679688 -3.347656 3.484375 -3.265625 C 3.804688 -3.171875 4.054688 -3 4.234375 -2.75 C 4.421875 -2.5 4.515625 -2.191406 4.515625 -1.828125 C 4.515625 -1.234375 4.316406 -0.75 3.921875 -0.375 C 3.535156 -0.0078125 2.988281 0.171875 2.28125 0.171875 Z M 2.28125 0.171875 "/>
</g>
<g id="glyph-0-8">
<path d="M 2.90625 -2.171875 L 2.90625 -4.96875 L 0.9375 -2.171875 Z M 2.921875 0 L 2.921875 -1.5 L 0.21875 -1.5 L 0.21875 -2.265625 L 3.046875 -6.171875 L 3.6875 -6.171875 L 3.6875 -2.171875 L 4.59375 -2.171875 L 4.59375 -1.5 L 3.6875 -1.5 L 3.6875 0 Z M 2.921875 0 "/>
</g>
<g id="glyph-0-9">
<path d="M 5.265625 -6.3125 L 5.265625 -5.5625 L 3.140625 -5.5625 L 3.140625 0 L 2.265625 0 L 2.265625 -5.5625 L 0.140625 -5.5625 L 0.140625 -6.3125 Z M 5.265625 -6.3125 "/>
</g>
<g id="glyph-0-10">
<path d="M 2.390625 -0.5 C 2.898438 -0.5 3.25 -0.691406 3.4375 -1.078125 C 3.632812 -1.460938 3.734375 -1.894531 3.734375 -2.375 C 3.734375 -2.800781 3.664062 -3.148438 3.53125 -3.421875 C 3.3125 -3.847656 2.9375 -4.0625 2.40625 -4.0625 C 1.925781 -4.0625 1.578125 -3.878906 1.359375 -3.515625 C 1.148438 -3.160156 1.046875 -2.726562 1.046875 -2.21875 C 1.046875 -1.726562 1.148438 -1.316406 1.359375 -0.984375 C 1.578125 -0.660156 1.921875 -0.5 2.390625 -0.5 Z M 2.421875 -4.734375 C 3.015625 -4.734375 3.515625 -4.535156 3.921875 -4.140625 C 4.335938 -3.742188 4.546875 -3.160156 4.546875 -2.390625 C 4.546875 -1.648438 4.363281 -1.035156 4 -0.546875 C 3.632812 -0.0664062 3.070312 0.171875 2.3125 0.171875 C 1.6875 0.171875 1.1875 -0.0390625 0.8125 -0.46875 C 0.4375 -0.894531 0.25 -1.472656 0.25 -2.203125 C 0.25 -2.972656 0.445312 -3.585938 0.84375 -4.046875 C 1.238281 -4.503906 1.765625 -4.734375 2.421875 -4.734375 Z M 2.390625 -4.71875 Z M 2.390625 -4.71875 "/>
</g>
<g id="glyph-0-11">
<path d="M 0.6875 -6.3125 L 1.5625 -6.3125 L 1.5625 -3.703125 L 4.84375 -3.703125 L 4.84375 -6.3125 L 5.703125 -6.3125 L 5.703125 0 L 4.84375 0 L 4.84375 -2.953125 L 1.5625 -2.953125 L 1.5625 0 L 0.6875 0 Z M 0.6875 -6.3125 "/>
</g>
<g id="glyph-0-12">
<path d="M 0.5625 -4.578125 L 1.359375 -4.578125 L 1.359375 0 L 0.5625 0 Z M 0.5625 -6.3125 L 1.359375 -6.3125 L 1.359375 -5.4375 L 0.5625 -5.4375 Z M 0.5625 -6.3125 "/>
</g>
<g id="glyph-0-13">
<path d="M 2.1875 -4.6875 C 2.550781 -4.6875 2.867188 -4.597656 3.140625 -4.421875 C 3.285156 -4.316406 3.429688 -4.171875 3.578125 -3.984375 L 3.578125 -4.5625 L 4.296875 -4.5625 L 4.296875 -0.375 C 4.296875 0.207031 4.207031 0.671875 4.03125 1.015625 C 3.71875 1.640625 3.113281 1.953125 2.21875 1.953125 C 1.726562 1.953125 1.3125 1.835938 0.96875 1.609375 C 0.632812 1.390625 0.445312 1.046875 0.40625 0.578125 L 1.1875 0.578125 C 1.226562 0.773438 1.300781 0.929688 1.40625 1.046875 C 1.582031 1.222656 1.859375 1.3125 2.234375 1.3125 C 2.828125 1.3125 3.21875 1.097656 3.40625 0.671875 C 3.507812 0.429688 3.554688 -0.00390625 3.546875 -0.640625 C 3.390625 -0.398438 3.203125 -0.222656 2.984375 -0.109375 C 2.773438 0.00390625 2.488281 0.0625 2.125 0.0625 C 1.632812 0.0625 1.203125 -0.113281 0.828125 -0.46875 C 0.453125 -0.820312 0.265625 -1.410156 0.265625 -2.234375 C 0.265625 -3.003906 0.453125 -3.601562 0.828125 -4.03125 C 1.203125 -4.46875 1.65625 -4.6875 2.1875 -4.6875 Z M 3.578125 -2.3125 C 3.578125 -2.882812 3.457031 -3.304688 3.21875 -3.578125 C 2.988281 -3.859375 2.691406 -4 2.328125 -4 C 1.785156 -4 1.414062 -3.742188 1.21875 -3.234375 C 1.113281 -2.960938 1.0625 -2.609375 1.0625 -2.171875 C 1.0625 -1.648438 1.164062 -1.253906 1.375 -0.984375 C 1.582031 -0.710938 1.863281 -0.578125 2.21875 -0.578125 C 2.769531 -0.578125 3.160156 -0.828125 3.390625 -1.328125 C 3.515625 -1.609375 3.578125 -1.9375 3.578125 -2.3125 Z M 2.28125 -4.71875 Z M 2.28125 -4.71875 "/>
</g>
<g id="glyph-0-14">
<path d="M 0.5625 -6.328125 L 1.34375 -6.328125 L 1.34375 -3.984375 C 1.519531 -4.210938 1.679688 -4.375 1.828125 -4.46875 C 2.078125 -4.632812 2.390625 -4.71875 2.765625 -4.71875 C 3.429688 -4.71875 3.882812 -4.484375 4.125 -4.015625 C 4.25 -3.753906 4.3125 -3.398438 4.3125 -2.953125 L 4.3125 0 L 3.515625 0 L 3.515625 -2.90625 C 3.515625 -3.238281 3.472656 -3.484375 3.390625 -3.640625 C 3.253906 -3.890625 2.992188 -4.015625 2.609375 -4.015625 C 2.285156 -4.015625 1.992188 -3.90625 1.734375 -3.6875 C 1.472656 -3.46875 1.34375 -3.050781 1.34375 -2.4375 L 1.34375 0 L 0.5625 0 Z M 0.5625 -6.328125 "/>
</g>
<g id="glyph-0-15">
<path d="M 0.671875 -6.3125 L 1.53125 -6.3125 L 1.53125 -0.75 L 4.71875 -0.75 L 4.71875 0 L 0.671875 0 Z M 0.671875 -6.3125 "/>
</g>
<g id="glyph-0-16">
<path d="M 0.921875 -4.59375 L 1.8125 -0.96875 L 2.703125 -4.59375 L 3.578125 -4.59375 L 4.46875 -1 L 5.421875 -4.59375 L 6.1875 -4.59375 L 4.859375 0 L 4.046875 0 L 3.109375 -3.5625 L 2.203125 0 L 1.40625 0 L 0.078125 -4.59375 Z M 0.921875 -4.59375 "/>
</g>
<g id="glyph-1-0">
<path d="M 1.375 0 L 1.375 -8.25 L 9.625 -8.25 L 9.625 0 Z M 2.0625 -0.6875 L 8.9375 -0.6875 L 8.9375 -7.5625 L 2.0625 -7.5625 Z M 2.0625 -0.6875 "/>
</g>
<g id="glyph-1-1">
<path d="M 6.015625 0 L 5 0 L 5 -5.125 L 2 -5.125 L 2 0 L 1 0 L 1 -6 L 6.015625 -6 Z M 6.015625 0 "/>
</g>
<g id="glyph-2-0">
<path d="M 0 -0.359375 L -7.890625 -0.359375 L -7.890625 -6.625 L 0 -6.625 Z M -0.984375 -5.625 L -6.90625 -5.625 L -6.90625 -1.34375 L -0.984375 -1.34375 Z M -0.984375 -5.625 "/>
</g>
<g id="glyph-2-1">
<path d="M -7.890625 -0.9375 L -7.890625 -4.484375 C -7.890625 -5.191406 -7.691406 -5.757812 -7.296875 -6.1875 C -6.898438 -6.613281 -6.34375 -6.828125 -5.625 -6.828125 C -5.007812 -6.828125 -4.472656 -6.632812 -4.015625 -6.25 C -3.554688 -5.875 -3.328125 -5.285156 -3.328125 -4.484375 L -3.328125 -2.015625 L 0 -2.015625 L 0 -0.9375 Z M -5.625 -5.75 C -6.207031 -5.75 -6.601562 -5.535156 -6.8125 -5.109375 C -6.914062 -4.867188 -6.96875 -4.546875 -6.96875 -4.140625 L -6.96875 -2.015625 L -4.234375 -2.015625 L -4.234375 -4.140625 C -4.234375 -4.617188 -4.332031 -5.003906 -4.53125 -5.296875 C -4.738281 -5.597656 -5.101562 -5.75 -5.625 -5.75 Z M -5.625 -5.75 "/>
</g>
<g id="glyph-2-2">
<path d="M -5.75 -0.734375 L -5.75 -1.65625 L -4.765625 -1.65625 C -4.953125 -1.726562 -5.179688 -1.910156 -5.453125 -2.203125 C -5.734375 -2.492188 -5.875 -2.832031 -5.875 -3.21875 C -5.875 -3.238281 -5.875 -3.269531 -5.875 -3.3125 C -5.875 -3.351562 -5.867188 -3.425781 -5.859375 -3.53125 L -4.828125 -3.53125 C -4.835938 -3.476562 -4.84375 -3.425781 -4.84375 -3.375 C -4.851562 -3.320312 -4.859375 -3.269531 -4.859375 -3.21875 C -4.859375 -2.726562 -4.703125 -2.351562 -4.390625 -2.09375 C -4.078125 -1.832031 -3.71875 -1.703125 -3.3125 -1.703125 L 0 -1.703125 L 0 -0.734375 Z M -5.75 -0.734375 "/>
</g>
<g id="glyph-2-3">
<path d="M -0.625 -2.984375 C -0.625 -3.628906 -0.863281 -4.070312 -1.34375 -4.3125 C -1.832031 -4.550781 -2.375 -4.671875 -2.96875 -4.671875 C -3.507812 -4.671875 -3.945312 -4.582031 -4.28125 -4.40625 C -4.8125 -4.132812 -5.078125 -3.664062 -5.078125 -3 C -5.078125 -2.40625 -4.847656 -1.972656 -4.390625 -1.703125 C -3.941406 -1.441406 -3.398438 -1.3125 -2.765625 -1.3125 C -2.148438 -1.3125 -1.640625 -1.441406 -1.234375 -1.703125 C -0.828125 -1.972656 -0.625 -2.398438 -0.625 -2.984375 Z M -5.921875 -3.03125 C -5.921875 -3.769531 -5.671875 -4.394531 -5.171875 -4.90625 C -4.679688 -5.414062 -3.957031 -5.671875 -3 -5.671875 C -2.070312 -5.671875 -1.304688 -5.445312 -0.703125 -5 C -0.0976562 -4.550781 0.203125 -3.851562 0.203125 -2.90625 C 0.203125 -2.113281 -0.0625 -1.484375 -0.59375 -1.015625 C -1.125 -0.546875 -1.84375 -0.3125 -2.75 -0.3125 C -3.71875 -0.3125 -4.488281 -0.554688 -5.0625 -1.046875 C -5.632812 -1.535156 -5.921875 -2.195312 -5.921875 -3.03125 Z M -5.890625 -3 Z M -5.890625 -3 "/>
</g>
<g id="glyph-2-4">
<path d="M -7.921875 -0.640625 L -7.921875 -1.578125 L -5.046875 -1.578125 C -5.328125 -1.785156 -5.539062 -2.035156 -5.6875 -2.328125 C -5.832031 -2.617188 -5.90625 -2.9375 -5.90625 -3.28125 C -5.90625 -4 -5.65625 -4.582031 -5.15625 -5.03125 C -4.664062 -5.476562 -3.941406 -5.703125 -2.984375 -5.703125 C -2.078125 -5.703125 -1.320312 -5.476562 -0.71875 -5.03125 C -0.113281 -4.59375 0.1875 -3.984375 0.1875 -3.203125 C 0.1875 -2.765625 0.0742188 -2.394531 -0.140625 -2.09375 C -0.265625 -1.914062 -0.460938 -1.726562 -0.734375 -1.53125 L 0 -1.53125 L 0 -0.640625 Z M -0.671875 -3.140625 C -0.671875 -3.671875 -0.878906 -4.0625 -1.296875 -4.3125 C -1.710938 -4.570312 -2.257812 -4.703125 -2.9375 -4.703125 C -3.539062 -4.703125 -4.039062 -4.570312 -4.4375 -4.3125 C -4.832031 -4.0625 -5.03125 -3.679688 -5.03125 -3.171875 C -5.03125 -2.734375 -4.867188 -2.347656 -4.546875 -2.015625 C -4.222656 -1.679688 -3.6875 -1.515625 -2.9375 -1.515625 C -2.394531 -1.515625 -1.957031 -1.582031 -1.625 -1.71875 C -0.988281 -1.976562 -0.671875 -2.453125 -0.671875 -3.140625 Z M -0.671875 -3.140625 "/>
</g>
<g id="glyph-2-5">
<path d="M -1.53125 -1.453125 C -1.25 -1.453125 -1.023438 -1.550781 -0.859375 -1.75 C -0.703125 -1.957031 -0.625 -2.203125 -0.625 -2.484375 C -0.625 -2.816406 -0.703125 -3.144531 -0.859375 -3.46875 C -1.117188 -4.007812 -1.550781 -4.28125 -2.15625 -4.28125 L -2.921875 -4.28125 C -2.847656 -4.15625 -2.785156 -4 -2.734375 -3.8125 C -2.691406 -3.632812 -2.65625 -3.453125 -2.625 -3.265625 L -2.5625 -2.6875 C -2.507812 -2.332031 -2.4375 -2.066406 -2.34375 -1.890625 C -2.164062 -1.597656 -1.894531 -1.453125 -1.53125 -1.453125 Z M -3.484375 -3.796875 C -3.515625 -4.015625 -3.609375 -4.160156 -3.765625 -4.234375 C -3.847656 -4.273438 -3.972656 -4.296875 -4.140625 -4.296875 C -4.460938 -4.296875 -4.695312 -4.175781 -4.84375 -3.9375 C -5 -3.707031 -5.078125 -3.375 -5.078125 -2.9375 C -5.078125 -2.4375 -4.941406 -2.082031 -4.671875 -1.875 C -4.515625 -1.75 -4.289062 -1.671875 -4 -1.640625 L -4 -0.734375 C -4.707031 -0.753906 -5.195312 -0.984375 -5.46875 -1.421875 C -5.75 -1.867188 -5.890625 -2.382812 -5.890625 -2.96875 C -5.890625 -3.644531 -5.757812 -4.191406 -5.5 -4.609375 C -5.25 -5.035156 -4.847656 -5.25 -4.296875 -5.25 L -0.984375 -5.25 C -0.890625 -5.25 -0.8125 -5.265625 -0.75 -5.296875 C -0.6875 -5.335938 -0.65625 -5.425781 -0.65625 -5.5625 C -0.65625 -5.601562 -0.65625 -5.648438 -0.65625 -5.703125 C -0.664062 -5.765625 -0.675781 -5.820312 -0.6875 -5.875 L 0.03125 -5.875 C 0.0703125 -5.726562 0.0976562 -5.613281 0.109375 -5.53125 C 0.117188 -5.457031 0.125 -5.351562 0.125 -5.21875 C 0.125 -4.882812 0.00390625 -4.640625 -0.234375 -4.484375 C -0.359375 -4.410156 -0.535156 -4.359375 -0.765625 -4.328125 C -0.503906 -4.128906 -0.28125 -3.84375 -0.09375 -3.46875 C 0.0898438 -3.101562 0.1875 -2.695312 0.1875 -2.25 C 0.1875 -1.71875 0.0234375 -1.28125 -0.296875 -0.9375 C -0.617188 -0.601562 -1.023438 -0.4375 -1.515625 -0.4375 C -2.046875 -0.4375 -2.457031 -0.601562 -2.75 -0.9375 C -3.039062 -1.269531 -3.222656 -1.707031 -3.296875 -2.25 Z M -5.890625 -2.984375 Z M -5.890625 -2.984375 "/>
</g>
<g id="glyph-2-6">
<path d="M -5.71875 -0.703125 L -5.71875 -1.6875 L 0 -1.6875 L 0 -0.703125 Z M -7.890625 -0.703125 L -7.890625 -1.6875 L -6.796875 -1.6875 L -6.796875 -0.703125 Z M -7.890625 -0.703125 "/>
</g>
<g id="glyph-2-7">
<path d="M -7.890625 -0.734375 L -7.890625 -1.703125 L 0 -1.703125 L 0 -0.734375 Z M -7.890625 -0.734375 "/>
</g>
<g id="glyph-2-8">
<path d="M -7.359375 -0.90625 L -7.359375 -1.875 L -5.75 -1.875 L -5.75 -2.796875 L -4.96875 -2.796875 L -4.96875 -1.875 L -1.203125 -1.875 C -1.003906 -1.875 -0.875 -1.941406 -0.8125 -2.078125 C -0.769531 -2.160156 -0.75 -2.285156 -0.75 -2.453125 C -0.75 -2.503906 -0.75 -2.554688 -0.75 -2.609375 C -0.75 -2.660156 -0.753906 -2.722656 -0.765625 -2.796875 L 0 -2.796875 C 0.03125 -2.679688 0.0507812 -2.5625 0.0625 -2.4375 C 0.0820312 -2.320312 0.09375 -2.195312 0.09375 -2.0625 C 0.09375 -1.613281 -0.0195312 -1.304688 -0.25 -1.140625 C -0.488281 -0.984375 -0.789062 -0.90625 -1.15625 -0.90625 L -4.96875 -0.90625 L -4.96875 -0.125 L -5.75 -0.125 L -5.75 -0.90625 Z M -7.359375 -0.90625 "/>
</g>
<g id="glyph-2-9">
<path d="M -5.75 -4.296875 L -5.75 -5.375 C -5.382812 -5.238281 -4.546875 -4.9375 -3.234375 -4.46875 C -2.242188 -4.113281 -1.4375 -3.816406 -0.8125 -3.578125 C 0.652344 -3.023438 1.550781 -2.632812 1.875 -2.40625 C 2.195312 -2.175781 2.359375 -1.78125 2.359375 -1.21875 C 2.359375 -1.082031 2.351562 -0.976562 2.34375 -0.90625 C 2.332031 -0.832031 2.3125 -0.742188 2.28125 -0.640625 L 1.40625 -0.640625 C 1.445312 -0.804688 1.472656 -0.925781 1.484375 -1 C 1.492188 -1.070312 1.5 -1.140625 1.5 -1.203125 C 1.5 -1.378906 1.46875 -1.507812 1.40625 -1.59375 C 1.351562 -1.675781 1.285156 -1.75 1.203125 -1.8125 C 1.171875 -1.820312 1.019531 -1.882812 0.75 -2 C 0.488281 -2.113281 0.296875 -2.191406 0.171875 -2.234375 L -5.75 -0.109375 L -5.75 -1.203125 L -1.0625 -2.75 Z M -5.890625 -2.75 Z M -5.890625 -2.75 "/>
</g>
<g id="glyph-3-0">
<path d="M 0.359375 0 L 0.359375 -7.890625 L 6.625 -7.890625 L 6.625 0 Z M 5.625 -0.984375 L 5.625 -6.90625 L 1.34375 -6.90625 L 1.34375 -0.984375 Z M 5.625 -0.984375 "/>
</g>
<g id="glyph-3-1">
<path d="M 4.25 -8.09375 C 4.988281 -8.09375 5.628906 -7.953125 6.171875 -7.671875 C 6.953125 -7.253906 7.429688 -6.53125 7.609375 -5.5 L 6.546875 -5.5 C 6.421875 -6.070312 6.15625 -6.488281 5.75 -6.75 C 5.34375 -7.019531 4.832031 -7.15625 4.21875 -7.15625 C 3.488281 -7.15625 2.875 -6.878906 2.375 -6.328125 C 1.875 -5.785156 1.625 -4.972656 1.625 -3.890625 C 1.625 -2.941406 1.828125 -2.171875 2.234375 -1.578125 C 2.648438 -0.992188 3.328125 -0.703125 4.265625 -0.703125 C 4.972656 -0.703125 5.5625 -0.910156 6.03125 -1.328125 C 6.5 -1.742188 6.738281 -2.410156 6.75 -3.328125 L 4.28125 -3.328125 L 4.28125 -4.21875 L 7.734375 -4.21875 L 7.734375 0 L 7.046875 0 L 6.796875 -1.015625 C 6.429688 -0.617188 6.109375 -0.34375 5.828125 -0.1875 C 5.359375 0.0703125 4.765625 0.203125 4.046875 0.203125 C 3.109375 0.203125 2.304688 -0.0976562 1.640625 -0.703125 C 0.898438 -1.460938 0.53125 -2.503906 0.53125 -3.828125 C 0.53125 -5.148438 0.890625 -6.203125 1.609375 -6.984375 C 2.285156 -7.722656 3.164062 -8.09375 4.25 -8.09375 Z M 4.078125 -8.109375 Z M 4.078125 -8.109375 "/>
</g>
<g id="glyph-3-2">
<path d="M 0.734375 -5.75 L 1.65625 -5.75 L 1.65625 -4.765625 C 1.726562 -4.953125 1.910156 -5.179688 2.203125 -5.453125 C 2.492188 -5.734375 2.832031 -5.875 3.21875 -5.875 C 3.238281 -5.875 3.269531 -5.875 3.3125 -5.875 C 3.351562 -5.875 3.425781 -5.867188 3.53125 -5.859375 L 3.53125 -4.828125 C 3.476562 -4.835938 3.425781 -4.84375 3.375 -4.84375 C 3.320312 -4.851562 3.269531 -4.859375 3.21875 -4.859375 C 2.726562 -4.859375 2.351562 -4.703125 2.09375 -4.390625 C 1.832031 -4.078125 1.703125 -3.71875 1.703125 -3.3125 L 1.703125 0 L 0.734375 0 Z M 0.734375 -5.75 "/>
</g>
<g id="glyph-3-3">
<path d="M 3.109375 -5.875 C 3.515625 -5.875 3.90625 -5.78125 4.28125 -5.59375 C 4.664062 -5.40625 4.960938 -5.15625 5.171875 -4.84375 C 5.359375 -4.5625 5.484375 -4.222656 5.546875 -3.828125 C 5.609375 -3.566406 5.640625 -3.144531 5.640625 -2.5625 L 1.421875 -2.5625 C 1.441406 -1.976562 1.578125 -1.507812 1.828125 -1.15625 C 2.085938 -0.8125 2.488281 -0.640625 3.03125 -0.640625 C 3.539062 -0.640625 3.945312 -0.804688 4.25 -1.140625 C 4.414062 -1.328125 4.535156 -1.550781 4.609375 -1.8125 L 5.5625 -1.8125 C 5.53125 -1.59375 5.441406 -1.351562 5.296875 -1.09375 C 5.160156 -0.832031 5.003906 -0.625 4.828125 -0.46875 C 4.535156 -0.175781 4.175781 0.0195312 3.75 0.125 C 3.507812 0.175781 3.242188 0.203125 2.953125 0.203125 C 2.234375 0.203125 1.625 -0.0546875 1.125 -0.578125 C 0.632812 -1.097656 0.390625 -1.828125 0.390625 -2.765625 C 0.390625 -3.691406 0.640625 -4.441406 1.140625 -5.015625 C 1.640625 -5.585938 2.296875 -5.875 3.109375 -5.875 Z M 4.640625 -3.328125 C 4.609375 -3.753906 4.519531 -4.09375 4.375 -4.34375 C 4.101562 -4.800781 3.660156 -5.03125 3.046875 -5.03125 C 2.597656 -5.03125 2.222656 -4.867188 1.921875 -4.546875 C 1.628906 -4.234375 1.472656 -3.828125 1.453125 -3.328125 Z M 3.015625 -5.890625 Z M 3.015625 -5.890625 "/>
</g>
<g id="glyph-3-4">
<path d="M 1.453125 -1.53125 C 1.453125 -1.25 1.550781 -1.023438 1.75 -0.859375 C 1.957031 -0.703125 2.203125 -0.625 2.484375 -0.625 C 2.816406 -0.625 3.144531 -0.703125 3.46875 -0.859375 C 4.007812 -1.117188 4.28125 -1.550781 4.28125 -2.15625 L 4.28125 -2.921875 C 4.15625 -2.847656 4 -2.785156 3.8125 -2.734375 C 3.632812 -2.691406 3.453125 -2.65625 3.265625 -2.625 L 2.6875 -2.5625 C 2.332031 -2.507812 2.066406 -2.4375 1.890625 -2.34375 C 1.597656 -2.164062 1.453125 -1.894531 1.453125 -1.53125 Z M 3.796875 -3.484375 C 4.015625 -3.515625 4.160156 -3.609375 4.234375 -3.765625 C 4.273438 -3.847656 4.296875 -3.972656 4.296875 -4.140625 C 4.296875 -4.460938 4.175781 -4.695312 3.9375 -4.84375 C 3.707031 -5 3.375 -5.078125 2.9375 -5.078125 C 2.4375 -5.078125 2.082031 -4.941406 1.875 -4.671875 C 1.75 -4.515625 1.671875 -4.289062 1.640625 -4 L 0.734375 -4 C 0.753906 -4.707031 0.984375 -5.195312 1.421875 -5.46875 C 1.867188 -5.75 2.382812 -5.890625 2.96875 -5.890625 C 3.644531 -5.890625 4.191406 -5.757812 4.609375 -5.5 C 5.035156 -5.25 5.25 -4.847656 5.25 -4.296875 L 5.25 -0.984375 C 5.25 -0.890625 5.265625 -0.8125 5.296875 -0.75 C 5.335938 -0.6875 5.425781 -0.65625 5.5625 -0.65625 C 5.601562 -0.65625 5.648438 -0.65625 5.703125 -0.65625 C 5.765625 -0.664062 5.820312 -0.675781 5.875 -0.6875 L 5.875 0.03125 C 5.726562 0.0703125 5.613281 0.0976562 5.53125 0.109375 C 5.457031 0.117188 5.351562 0.125 5.21875 0.125 C 4.882812 0.125 4.640625 0.00390625 4.484375 -0.234375 C 4.410156 -0.359375 4.359375 -0.535156 4.328125 -0.765625 C 4.128906 -0.503906 3.84375 -0.28125 3.46875 -0.09375 C 3.101562 0.0898438 2.695312 0.1875 2.25 0.1875 C 1.71875 0.1875 1.28125 0.0234375 0.9375 -0.296875 C 0.601562 -0.617188 0.4375 -1.023438 0.4375 -1.515625 C 0.4375 -2.046875 0.601562 -2.457031 0.9375 -2.75 C 1.269531 -3.039062 1.707031 -3.222656 2.25 -3.296875 Z M 2.984375 -5.890625 Z M 2.984375 -5.890625 "/>
</g>
<g id="glyph-3-5">
<path d="M 0.90625 -7.359375 L 1.875 -7.359375 L 1.875 -5.75 L 2.796875 -5.75 L 2.796875 -4.96875 L 1.875 -4.96875 L 1.875 -1.203125 C 1.875 -1.003906 1.941406 -0.875 2.078125 -0.8125 C 2.160156 -0.769531 2.285156 -0.75 2.453125 -0.75 C 2.503906 -0.75 2.554688 -0.75 2.609375 -0.75 C 2.660156 -0.75 2.722656 -0.753906 2.796875 -0.765625 L 2.796875 0 C 2.679688 0.03125 2.5625 0.0507812 2.4375 0.0625 C 2.320312 0.0820312 2.195312 0.09375 2.0625 0.09375 C 1.613281 0.09375 1.304688 -0.0195312 1.140625 -0.25 C 0.984375 -0.488281 0.90625 -0.789062 0.90625 -1.15625 L 0.90625 -4.96875 L 0.125 -4.96875 L 0.125 -5.75 L 0.90625 -5.75 Z M 0.90625 -7.359375 "/>
</g>
<g id="glyph-3-6">
<path d="M 2.5 -7.890625 L 3.3125 -7.890625 L 0.8125 0 L 0 0 Z M 2.5 -7.890625 "/>
</g>
<g id="glyph-3-7">
<path d="M 0.84375 -7.890625 L 1.90625 -7.890625 L 1.90625 -0.9375 L 5.90625 -0.9375 L 5.90625 0 L 0.84375 0 Z M 0.84375 -7.890625 "/>
</g>
<g id="glyph-3-8">
<path d="M 1.28125 -1.8125 C 1.3125 -1.488281 1.394531 -1.238281 1.53125 -1.0625 C 1.769531 -0.75 2.191406 -0.59375 2.796875 -0.59375 C 3.148438 -0.59375 3.460938 -0.671875 3.734375 -0.828125 C 4.003906 -0.984375 4.140625 -1.222656 4.140625 -1.546875 C 4.140625 -1.796875 4.03125 -1.984375 3.8125 -2.109375 C 3.675781 -2.191406 3.398438 -2.285156 2.984375 -2.390625 L 2.21875 -2.578125 C 1.726562 -2.703125 1.367188 -2.835938 1.140625 -2.984375 C 0.722656 -3.253906 0.515625 -3.617188 0.515625 -4.078125 C 0.515625 -4.617188 0.707031 -5.054688 1.09375 -5.390625 C 1.488281 -5.734375 2.019531 -5.90625 2.6875 -5.90625 C 3.550781 -5.90625 4.175781 -5.648438 4.5625 -5.140625 C 4.800781 -4.816406 4.914062 -4.46875 4.90625 -4.09375 L 4 -4.09375 C 3.976562 -4.3125 3.898438 -4.507812 3.765625 -4.6875 C 3.546875 -4.945312 3.160156 -5.078125 2.609375 -5.078125 C 2.242188 -5.078125 1.96875 -5.003906 1.78125 -4.859375 C 1.59375 -4.722656 1.5 -4.539062 1.5 -4.3125 C 1.5 -4.0625 1.625 -3.863281 1.875 -3.71875 C 2.007812 -3.625 2.21875 -3.539062 2.5 -3.46875 L 3.140625 -3.3125 C 3.835938 -3.144531 4.300781 -2.984375 4.53125 -2.828125 C 4.914062 -2.578125 5.109375 -2.191406 5.109375 -1.671875 C 5.109375 -1.148438 4.910156 -0.703125 4.515625 -0.328125 C 4.128906 0.0351562 3.539062 0.21875 2.75 0.21875 C 1.894531 0.21875 1.285156 0.0234375 0.921875 -0.359375 C 0.566406 -0.753906 0.378906 -1.238281 0.359375 -1.8125 Z M 2.71875 -5.890625 Z M 2.71875 -5.890625 "/>
</g>
<g id="glyph-4-0">
<path d="M 0.421875 0 L 0.421875 -9.46875 L 7.9375 -9.46875 L 7.9375 0 Z M 6.75 -1.1875 L 6.75 -8.28125 L 1.609375 -8.28125 L 1.609375 -1.1875 Z M 6.75 -1.1875 "/>
</g>
<g id="glyph-4-1">
<path d="M 2.390625 -9.46875 L 2.390625 -3.609375 C 2.390625 -2.921875 2.519531 -2.351562 2.78125 -1.90625 C 3.164062 -1.21875 3.8125 -0.875 4.71875 -0.875 C 5.800781 -0.875 6.539062 -1.242188 6.9375 -1.984375 C 7.144531 -2.390625 7.25 -2.929688 7.25 -3.609375 L 7.25 -9.46875 L 8.5625 -9.46875 L 8.5625 -4.15625 C 8.5625 -2.988281 8.398438 -2.09375 8.078125 -1.46875 C 7.503906 -0.320312 6.421875 0.25 4.828125 0.25 C 3.222656 0.25 2.132812 -0.320312 1.5625 -1.46875 C 1.25 -2.09375 1.09375 -2.988281 1.09375 -4.15625 L 1.09375 -9.46875 Z M 4.828125 -9.46875 Z M 4.828125 -9.46875 "/>
</g>
<g id="glyph-4-2">
<path d="M 1.546875 -2.171875 C 1.578125 -1.773438 1.671875 -1.476562 1.828125 -1.28125 C 2.117188 -0.90625 2.628906 -0.71875 3.359375 -0.71875 C 3.785156 -0.71875 4.160156 -0.8125 4.484375 -1 C 4.816406 -1.1875 4.984375 -1.472656 4.984375 -1.859375 C 4.984375 -2.160156 4.847656 -2.390625 4.578125 -2.546875 C 4.410156 -2.640625 4.082031 -2.75 3.59375 -2.875 L 2.671875 -3.09375 C 2.078125 -3.238281 1.640625 -3.40625 1.359375 -3.59375 C 0.867188 -3.90625 0.625 -4.335938 0.625 -4.890625 C 0.625 -5.546875 0.859375 -6.070312 1.328125 -6.46875 C 1.796875 -6.875 2.425781 -7.078125 3.21875 -7.078125 C 4.257812 -7.078125 5.007812 -6.773438 5.46875 -6.171875 C 5.757812 -5.785156 5.898438 -5.367188 5.890625 -4.921875 L 4.796875 -4.921875 C 4.773438 -5.179688 4.679688 -5.421875 4.515625 -5.640625 C 4.253906 -5.941406 3.796875 -6.09375 3.140625 -6.09375 C 2.691406 -6.09375 2.351562 -6.007812 2.125 -5.84375 C 1.90625 -5.675781 1.796875 -5.453125 1.796875 -5.171875 C 1.796875 -4.867188 1.945312 -4.628906 2.25 -4.453125 C 2.414062 -4.347656 2.664062 -4.253906 3 -4.171875 L 3.765625 -3.984375 C 4.597656 -3.785156 5.160156 -3.585938 5.453125 -3.390625 C 5.898438 -3.097656 6.125 -2.632812 6.125 -2 C 6.125 -1.382812 5.890625 -0.851562 5.421875 -0.40625 C 4.953125 0.0390625 4.242188 0.265625 3.296875 0.265625 C 2.265625 0.265625 1.535156 0.0273438 1.109375 -0.4375 C 0.679688 -0.90625 0.453125 -1.484375 0.421875 -2.171875 Z M 3.25 -7.078125 Z M 3.25 -7.078125 "/>
</g>
<g id="glyph-4-3">
<path d="M 0.84375 -6.875 L 2.03125 -6.875 L 2.03125 0 L 0.84375 0 Z M 0.84375 -9.46875 L 2.03125 -9.46875 L 2.03125 -8.15625 L 0.84375 -8.15625 Z M 0.84375 -9.46875 "/>
</g>
<g id="glyph-4-4">
<path d="M 0.84375 -6.90625 L 1.953125 -6.90625 L 1.953125 -5.921875 C 2.273438 -6.328125 2.617188 -6.617188 2.984375 -6.796875 C 3.359375 -6.972656 3.765625 -7.0625 4.203125 -7.0625 C 5.179688 -7.0625 5.847656 -6.71875 6.203125 -6.03125 C 6.390625 -5.65625 6.484375 -5.117188 6.484375 -4.421875 L 6.484375 0 L 5.296875 0 L 5.296875 -4.359375 C 5.296875 -4.773438 5.234375 -5.113281 5.109375 -5.375 C 4.898438 -5.800781 4.523438 -6.015625 3.984375 -6.015625 C 3.710938 -6.015625 3.488281 -5.988281 3.3125 -5.9375 C 3 -5.84375 2.71875 -5.648438 2.46875 -5.359375 C 2.28125 -5.128906 2.15625 -4.894531 2.09375 -4.65625 C 2.039062 -4.414062 2.015625 -4.066406 2.015625 -3.609375 L 2.015625 0 L 0.84375 0 Z M 3.578125 -7.078125 Z M 3.578125 -7.078125 "/>
</g>
<g id="glyph-4-5">
<path d="M 3.28125 -7.03125 C 3.820312 -7.03125 4.296875 -6.894531 4.703125 -6.625 C 4.921875 -6.476562 5.144531 -6.257812 5.375 -5.96875 L 5.375 -6.84375 L 6.453125 -6.84375 L 6.453125 -0.5625 C 6.453125 0.308594 6.320312 1.003906 6.0625 1.515625 C 5.582031 2.453125 4.671875 2.921875 3.328125 2.921875 C 2.585938 2.921875 1.960938 2.753906 1.453125 2.421875 C 0.953125 2.085938 0.671875 1.566406 0.609375 0.859375 L 1.78125 0.859375 C 1.84375 1.171875 1.957031 1.410156 2.125 1.578125 C 2.382812 1.828125 2.796875 1.953125 3.359375 1.953125 C 4.242188 1.953125 4.828125 1.640625 5.109375 1.015625 C 5.265625 0.648438 5.335938 -0.00390625 5.328125 -0.953125 C 5.097656 -0.609375 4.816406 -0.347656 4.484375 -0.171875 C 4.160156 -0.00390625 3.734375 0.078125 3.203125 0.078125 C 2.453125 0.078125 1.796875 -0.1875 1.234375 -0.71875 C 0.671875 -1.25 0.390625 -2.125 0.390625 -3.34375 C 0.390625 -4.5 0.671875 -5.398438 1.234375 -6.046875 C 1.804688 -6.703125 2.488281 -7.03125 3.28125 -7.03125 Z M 5.375 -3.484375 C 5.375 -4.335938 5.195312 -4.96875 4.84375 -5.375 C 4.488281 -5.789062 4.039062 -6 3.5 -6 C 2.6875 -6 2.128906 -5.617188 1.828125 -4.859375 C 1.660156 -4.441406 1.578125 -3.90625 1.578125 -3.25 C 1.578125 -2.46875 1.734375 -1.875 2.046875 -1.46875 C 2.367188 -1.0625 2.796875 -0.859375 3.328125 -0.859375 C 4.160156 -0.859375 4.75 -1.234375 5.09375 -1.984375 C 5.28125 -2.410156 5.375 -2.910156 5.375 -3.484375 Z M 3.421875 -7.078125 Z M 3.421875 -7.078125 "/>
</g>
<g id="glyph-4-6">
</g>
<g id="glyph-4-7">
<path d="M 1.078125 -8.828125 L 2.25 -8.828125 L 2.25 -6.90625 L 3.359375 -6.90625 L 3.359375 -5.953125 L 2.25 -5.953125 L 2.25 -1.453125 C 2.25 -1.210938 2.332031 -1.050781 2.5 -0.96875 C 2.59375 -0.914062 2.742188 -0.890625 2.953125 -0.890625 C 3.003906 -0.890625 3.0625 -0.890625 3.125 -0.890625 C 3.195312 -0.898438 3.273438 -0.910156 3.359375 -0.921875 L 3.359375 0 C 3.222656 0.0390625 3.082031 0.0664062 2.9375 0.078125 C 2.800781 0.0976562 2.644531 0.109375 2.46875 0.109375 C 1.925781 0.109375 1.554688 -0.0234375 1.359375 -0.296875 C 1.171875 -0.578125 1.078125 -0.941406 1.078125 -1.390625 L 1.078125 -5.953125 L 0.140625 -5.953125 L 0.140625 -6.90625 L 1.078125 -6.90625 Z M 1.078125 -8.828125 "/>
</g>
<g id="glyph-4-8">
<path d="M 0.84375 -9.5 L 2.015625 -9.5 L 2.015625 -5.96875 C 2.285156 -6.3125 2.53125 -6.554688 2.75 -6.703125 C 3.125 -6.953125 3.59375 -7.078125 4.15625 -7.078125 C 5.15625 -7.078125 5.832031 -6.722656 6.1875 -6.015625 C 6.382812 -5.640625 6.484375 -5.109375 6.484375 -4.421875 L 6.484375 0 L 5.28125 0 L 5.28125 -4.359375 C 5.28125 -4.859375 5.21875 -5.226562 5.09375 -5.46875 C 4.882812 -5.84375 4.488281 -6.03125 3.90625 -6.03125 C 3.425781 -6.03125 2.988281 -5.863281 2.59375 -5.53125 C 2.207031 -5.207031 2.015625 -4.582031 2.015625 -3.65625 L 2.015625 0 L 0.84375 0 Z M 0.84375 -9.5 "/>
</g>
<g id="glyph-4-9">
<path d="M 3.71875 -7.0625 C 4.21875 -7.0625 4.695312 -6.945312 5.15625 -6.71875 C 5.613281 -6.488281 5.960938 -6.191406 6.203125 -5.828125 C 6.429688 -5.472656 6.585938 -5.066406 6.671875 -4.609375 C 6.734375 -4.285156 6.765625 -3.773438 6.765625 -3.078125 L 1.703125 -3.078125 C 1.722656 -2.378906 1.890625 -1.816406 2.203125 -1.390625 C 2.515625 -0.972656 2.992188 -0.765625 3.640625 -0.765625 C 4.242188 -0.765625 4.726562 -0.960938 5.09375 -1.359375 C 5.300781 -1.585938 5.445312 -1.859375 5.53125 -2.171875 L 6.671875 -2.171875 C 6.640625 -1.910156 6.539062 -1.625 6.375 -1.3125 C 6.207031 -1 6.015625 -0.742188 5.796875 -0.546875 C 5.453125 -0.203125 5.019531 0.0234375 4.5 0.140625 C 4.21875 0.210938 3.898438 0.25 3.546875 0.25 C 2.679688 0.25 1.953125 -0.0625 1.359375 -0.6875 C 0.765625 -1.3125 0.46875 -2.1875 0.46875 -3.3125 C 0.46875 -4.425781 0.765625 -5.328125 1.359375 -6.015625 C 1.960938 -6.710938 2.75 -7.0625 3.71875 -7.0625 Z M 5.578125 -4 C 5.523438 -4.5 5.414062 -4.898438 5.25 -5.203125 C 4.925781 -5.765625 4.394531 -6.046875 3.65625 -6.046875 C 3.125 -6.046875 2.675781 -5.851562 2.3125 -5.46875 C 1.945312 -5.082031 1.753906 -4.59375 1.734375 -4 Z M 3.609375 -7.078125 Z M 3.609375 -7.078125 "/>
</g>
<g id="glyph-4-10">
<path d="M 4.5625 -5.46875 C 5.101562 -5.46875 5.523438 -5.539062 5.828125 -5.6875 C 6.296875 -5.925781 6.53125 -6.351562 6.53125 -6.96875 C 6.53125 -7.582031 6.28125 -8 5.78125 -8.21875 C 5.5 -8.34375 5.078125 -8.40625 4.515625 -8.40625 L 2.234375 -8.40625 L 2.234375 -5.46875 Z M 5 -1.09375 C 5.78125 -1.09375 6.335938 -1.320312 6.671875 -1.78125 C 6.890625 -2.070312 7 -2.421875 7 -2.828125 C 7 -3.515625 6.691406 -3.984375 6.078125 -4.234375 C 5.742188 -4.359375 5.3125 -4.421875 4.78125 -4.421875 L 2.234375 -4.421875 L 2.234375 -1.09375 Z M 0.96875 -9.46875 L 5.046875 -9.46875 C 6.148438 -9.46875 6.9375 -9.140625 7.40625 -8.484375 C 7.675781 -8.085938 7.8125 -7.632812 7.8125 -7.125 C 7.8125 -6.53125 7.644531 -6.039062 7.3125 -5.65625 C 7.132812 -5.445312 6.878906 -5.257812 6.546875 -5.09375 C 7.035156 -4.914062 7.398438 -4.707031 7.640625 -4.46875 C 8.066406 -4.0625 8.28125 -3.492188 8.28125 -2.765625 C 8.28125 -2.148438 8.085938 -1.597656 7.703125 -1.109375 C 7.128906 -0.367188 6.222656 0 4.984375 0 L 0.96875 0 Z M 0.96875 -9.46875 "/>
</g>
<g id="glyph-4-11">
<path d="M 3.59375 -0.75 C 4.363281 -0.75 4.890625 -1.039062 5.171875 -1.625 C 5.460938 -2.207031 5.609375 -2.851562 5.609375 -3.5625 C 5.609375 -4.207031 5.503906 -4.734375 5.296875 -5.140625 C 4.960938 -5.773438 4.398438 -6.09375 3.609375 -6.09375 C 2.898438 -6.09375 2.382812 -5.820312 2.0625 -5.28125 C 1.738281 -4.738281 1.578125 -4.082031 1.578125 -3.3125 C 1.578125 -2.582031 1.738281 -1.972656 2.0625 -1.484375 C 2.382812 -0.992188 2.894531 -0.75 3.59375 -0.75 Z M 3.640625 -7.109375 C 4.523438 -7.109375 5.273438 -6.8125 5.890625 -6.21875 C 6.503906 -5.625 6.8125 -4.75 6.8125 -3.59375 C 6.8125 -2.476562 6.539062 -1.554688 6 -0.828125 C 5.457031 -0.109375 4.617188 0.25 3.484375 0.25 C 2.535156 0.25 1.78125 -0.0664062 1.21875 -0.703125 C 0.65625 -1.347656 0.375 -2.210938 0.375 -3.296875 C 0.375 -4.460938 0.664062 -5.390625 1.25 -6.078125 C 1.84375 -6.765625 2.640625 -7.109375 3.640625 -7.109375 Z M 3.59375 -7.078125 Z M 3.59375 -7.078125 "/>
</g>
<g id="glyph-4-12">
<path d="M 0.84375 -6.90625 L 2 -6.90625 L 2 -5.921875 C 2.269531 -6.265625 2.519531 -6.515625 2.75 -6.671875 C 3.125 -6.929688 3.554688 -7.0625 4.046875 -7.0625 C 4.597656 -7.0625 5.039062 -6.925781 5.375 -6.65625 C 5.5625 -6.5 5.734375 -6.269531 5.890625 -5.96875 C 6.148438 -6.34375 6.453125 -6.617188 6.796875 -6.796875 C 7.148438 -6.972656 7.539062 -7.0625 7.96875 -7.0625 C 8.90625 -7.0625 9.539062 -6.722656 9.875 -6.046875 C 10.050781 -5.691406 10.140625 -5.207031 10.140625 -4.59375 L 10.140625 0 L 8.9375 0 L 8.9375 -4.796875 C 8.9375 -5.253906 8.820312 -5.566406 8.59375 -5.734375 C 8.363281 -5.910156 8.082031 -6 7.75 -6 C 7.289062 -6 6.894531 -5.847656 6.5625 -5.546875 C 6.238281 -5.242188 6.078125 -4.734375 6.078125 -4.015625 L 6.078125 0 L 4.90625 0 L 4.90625 -4.5 C 4.90625 -4.96875 4.847656 -5.3125 4.734375 -5.53125 C 4.554688 -5.851562 4.226562 -6.015625 3.75 -6.015625 C 3.3125 -6.015625 2.910156 -5.84375 2.546875 -5.5 C 2.191406 -5.164062 2.015625 -4.550781 2.015625 -3.65625 L 2.015625 0 L 0.84375 0 Z M 0.84375 -6.90625 "/>
</g>
<g id="glyph-4-13">
<path d="M 1.734375 -1.84375 C 1.734375 -1.5 1.851562 -1.226562 2.09375 -1.03125 C 2.34375 -0.84375 2.640625 -0.75 2.984375 -0.75 C 3.390625 -0.75 3.785156 -0.84375 4.171875 -1.03125 C 4.804688 -1.351562 5.125 -1.867188 5.125 -2.578125 L 5.125 -3.515625 C 4.988281 -3.421875 4.804688 -3.34375 4.578125 -3.28125 C 4.359375 -3.226562 4.140625 -3.1875 3.921875 -3.15625 L 3.21875 -3.0625 C 2.800781 -3.007812 2.488281 -2.921875 2.28125 -2.796875 C 1.914062 -2.597656 1.734375 -2.28125 1.734375 -1.84375 Z M 4.546875 -4.1875 C 4.816406 -4.21875 5 -4.328125 5.09375 -4.515625 C 5.132812 -4.617188 5.15625 -4.769531 5.15625 -4.96875 C 5.15625 -5.363281 5.015625 -5.648438 4.734375 -5.828125 C 4.453125 -6.003906 4.050781 -6.09375 3.53125 -6.09375 C 2.925781 -6.09375 2.5 -5.929688 2.25 -5.609375 C 2.101562 -5.421875 2.007812 -5.148438 1.96875 -4.796875 L 0.890625 -4.796875 C 0.910156 -5.648438 1.1875 -6.242188 1.71875 -6.578125 C 2.25 -6.910156 2.863281 -7.078125 3.5625 -7.078125 C 4.375 -7.078125 5.03125 -6.921875 5.53125 -6.609375 C 6.039062 -6.296875 6.296875 -5.8125 6.296875 -5.15625 L 6.296875 -1.1875 C 6.296875 -1.0625 6.316406 -0.960938 6.359375 -0.890625 C 6.410156 -0.816406 6.515625 -0.78125 6.671875 -0.78125 C 6.722656 -0.78125 6.78125 -0.785156 6.84375 -0.796875 C 6.914062 -0.804688 6.988281 -0.816406 7.0625 -0.828125 L 7.0625 0.03125 C 6.875 0.0820312 6.734375 0.113281 6.640625 0.125 C 6.546875 0.132812 6.421875 0.140625 6.265625 0.140625 C 5.859375 0.140625 5.566406 0 5.390625 -0.28125 C 5.296875 -0.425781 5.226562 -0.640625 5.1875 -0.921875 C 4.945312 -0.609375 4.601562 -0.335938 4.15625 -0.109375 C 3.71875 0.117188 3.234375 0.234375 2.703125 0.234375 C 2.066406 0.234375 1.546875 0.0390625 1.140625 -0.34375 C 0.734375 -0.738281 0.53125 -1.226562 0.53125 -1.8125 C 0.53125 -2.445312 0.726562 -2.941406 1.125 -3.296875 C 1.53125 -3.648438 2.054688 -3.867188 2.703125 -3.953125 Z M 3.59375 -7.078125 Z M 3.59375 -7.078125 "/>
</g>
<g id="glyph-4-14">
<path d="M 0.890625 -9.46875 L 2.046875 -9.46875 L 2.046875 0 L 0.890625 0 Z M 0.890625 -9.46875 "/>
</g>
<g id="glyph-4-15">
<path d="M 1.84375 -3.0625 C 1.875 -2.519531 2 -2.082031 2.21875 -1.75 C 2.644531 -1.125 3.394531 -0.8125 4.46875 -0.8125 C 4.957031 -0.8125 5.398438 -0.878906 5.796875 -1.015625 C 6.554688 -1.273438 6.9375 -1.75 6.9375 -2.4375 C 6.9375 -2.957031 6.773438 -3.328125 6.453125 -3.546875 C 6.128906 -3.765625 5.617188 -3.953125 4.921875 -4.109375 L 3.640625 -4.390625 C 2.796875 -4.585938 2.203125 -4.796875 1.859375 -5.015625 C 1.253906 -5.410156 0.953125 -6.003906 0.953125 -6.796875 C 0.953125 -7.648438 1.242188 -8.347656 1.828125 -8.890625 C 2.421875 -9.429688 3.257812 -9.703125 4.34375 -9.703125 C 5.332031 -9.703125 6.171875 -9.460938 6.859375 -8.984375 C 7.554688 -8.503906 7.90625 -7.738281 7.90625 -6.6875 L 6.703125 -6.6875 C 6.640625 -7.195312 6.503906 -7.585938 6.296875 -7.859375 C 5.898438 -8.347656 5.234375 -8.59375 4.296875 -8.59375 C 3.546875 -8.59375 3.003906 -8.429688 2.671875 -8.109375 C 2.335938 -7.796875 2.171875 -7.429688 2.171875 -7.015625 C 2.171875 -6.546875 2.363281 -6.207031 2.75 -6 C 3.007812 -5.863281 3.582031 -5.691406 4.46875 -5.484375 L 5.796875 -5.171875 C 6.441406 -5.023438 6.9375 -4.828125 7.28125 -4.578125 C 7.882812 -4.128906 8.1875 -3.488281 8.1875 -2.65625 C 8.1875 -1.601562 7.804688 -0.847656 7.046875 -0.390625 C 6.285156 0.0546875 5.398438 0.28125 4.390625 0.28125 C 3.210938 0.28125 2.289062 -0.0195312 1.625 -0.625 C 0.957031 -1.21875 0.628906 -2.03125 0.640625 -3.0625 Z M 4.4375 -9.734375 Z M 4.4375 -9.734375 "/>
</g>
<g id="glyph-4-16">
<path d="M 0.890625 -6.90625 L 1.984375 -6.90625 L 1.984375 -5.71875 C 2.078125 -5.945312 2.296875 -6.226562 2.640625 -6.5625 C 2.992188 -6.894531 3.40625 -7.0625 3.875 -7.0625 C 3.894531 -7.0625 3.929688 -7.054688 3.984375 -7.046875 C 4.035156 -7.046875 4.117188 -7.039062 4.234375 -7.03125 L 4.234375 -5.796875 C 4.171875 -5.816406 4.109375 -5.828125 4.046875 -5.828125 C 3.992188 -5.828125 3.929688 -5.828125 3.859375 -5.828125 C 3.273438 -5.828125 2.828125 -5.640625 2.515625 -5.265625 C 2.203125 -4.890625 2.046875 -4.457031 2.046875 -3.96875 L 2.046875 0 L 0.890625 0 Z M 0.890625 -6.90625 "/>
</g>
<g id="glyph-4-17">
<path d="M 3.515625 -7.109375 C 4.296875 -7.109375 4.925781 -6.914062 5.40625 -6.53125 C 5.894531 -6.15625 6.191406 -5.503906 6.296875 -4.578125 L 5.15625 -4.578125 C 5.09375 -5.003906 4.9375 -5.359375 4.6875 -5.640625 C 4.445312 -5.921875 4.054688 -6.0625 3.515625 -6.0625 C 2.773438 -6.0625 2.242188 -5.703125 1.921875 -4.984375 C 1.722656 -4.515625 1.625 -3.9375 1.625 -3.25 C 1.625 -2.5625 1.769531 -1.976562 2.0625 -1.5 C 2.351562 -1.03125 2.8125 -0.796875 3.4375 -0.796875 C 3.914062 -0.796875 4.296875 -0.941406 4.578125 -1.234375 C 4.859375 -1.523438 5.050781 -1.925781 5.15625 -2.4375 L 6.296875 -2.4375 C 6.160156 -1.519531 5.832031 -0.847656 5.3125 -0.421875 C 4.800781 -0.00390625 4.144531 0.203125 3.34375 0.203125 C 2.4375 0.203125 1.710938 -0.125 1.171875 -0.78125 C 0.640625 -1.445312 0.375 -2.273438 0.375 -3.265625 C 0.375 -4.472656 0.664062 -5.414062 1.25 -6.09375 C 1.84375 -6.769531 2.597656 -7.109375 3.515625 -7.109375 Z M 3.328125 -7.078125 Z M 3.328125 -7.078125 "/>
</g>
</g>
<clipPath id="clip-0">
<path clip-rule="nonzero" d="M 41.152344 23.957031 L 617.605469 23.957031 L 617.605469 399.847656 L 41.152344 399.847656 Z M 41.152344 23.957031 "/>
</clipPath>
<clipPath id="clip-1">
<path clip-rule="nonzero" d="M 41.152344 339 L 617.605469 339 L 617.605469 341 L 41.152344 341 Z M 41.152344 339 "/>
</clipPath>
<clipPath id="clip-2">
<path clip-rule="nonzero" d="M 41.152344 254 L 617.605469 254 L 617.605469 255 L 41.152344 255 Z M 41.152344 254 "/>
</clipPath>
<clipPath id="clip-3">
<path clip-rule="nonzero" d="M 41.152344 168 L 617.605469 168 L 617.605469 170 L 41.152344 170 Z M 41.152344 168 "/>
</clipPath>
<clipPath id="clip-4">
<path clip-rule="nonzero" d="M 41.152344 83 L 617.605469 83 L 617.605469 85 L 41.152344 85 Z M 41.152344 83 "/>
</clipPath>
<clipPath id="clip-5">
<path clip-rule="nonzero" d="M 106 23.957031 L 107 23.957031 L 107 399.847656 L 106 399.847656 Z M 106 23.957031 "/>
</clipPath>
<clipPath id="clip-6">
<path clip-rule="nonzero" d="M 237 23.957031 L 238 23.957031 L 238 399.847656 L 237 399.847656 Z M 237 23.957031 "/>
</clipPath>
<clipPath id="clip-7">
<path clip-rule="nonzero" d="M 368 23.957031 L 369 23.957031 L 369 399.847656 L 368 399.847656 Z M 368 23.957031 "/>
</clipPath>
<clipPath id="clip-8">
<path clip-rule="nonzero" d="M 499 23.957031 L 500 23.957031 L 500 399.847656 L 499 399.847656 Z M 499 23.957031 "/>
</clipPath>
<clipPath id="clip-9">
<path clip-rule="nonzero" d="M 41.152344 382 L 617.605469 382 L 617.605469 384 L 41.152344 384 Z M 41.152344 382 "/>
</clipPath>
<clipPath id="clip-10">
<path clip-rule="nonzero" d="M 41.152344 296 L 617.605469 296 L 617.605469 298 L 41.152344 298 Z M 41.152344 296 "/>
</clipPath>
<clipPath id="clip-11">
<path clip-rule="nonzero" d="M 41.152344 211 L 617.605469 211 L 617.605469 213 L 41.152344 213 Z M 41.152344 211 "/>
</clipPath>
<clipPath id="clip-12">
<path clip-rule="nonzero" d="M 41.152344 125 L 617.605469 125 L 617.605469 128 L 41.152344 128 Z M 41.152344 125 "/>
</clipPath>
<clipPath id="clip-13">
<path clip-rule="nonzero" d="M 41.152344 40 L 617.605469 40 L 617.605469 42 L 41.152344 42 Z M 41.152344 40 "/>
</clipPath>
<clipPath id="clip-14">
<path clip-rule="nonzero" d="M 41.152344 23.957031 L 42 23.957031 L 42 399.847656 L 41.152344 399.847656 Z M 41.152344 23.957031 "/>
</clipPath>
<clipPath id="clip-15">
<path clip-rule="nonzero" d="M 171 23.957031 L 173 23.957031 L 173 399.847656 L 171 399.847656 Z M 171 23.957031 "/>
</clipPath>
<clipPath id="clip-16">
<path clip-rule="nonzero" d="M 302 23.957031 L 304 23.957031 L 304 399.847656 L 302 399.847656 Z M 302 23.957031 "/>
</clipPath>
<clipPath id="clip-17">
<path clip-rule="nonzero" d="M 433 23.957031 L 435 23.957031 L 435 399.847656 L 433 399.847656 Z M 433 23.957031 "/>
</clipPath>
<clipPath id="clip-18">
<path clip-rule="nonzero" d="M 564 23.957031 L 566 23.957031 L 566 399.847656 L 564 399.847656 Z M 564 23.957031 "/>
</clipPath>
<clipPath id="clip-19">
<path clip-rule="nonzero" d="M 41.152344 365 L 617.605469 365 L 617.605469 367 L 41.152344 367 Z M 41.152344 365 "/>
</clipPath>
<clipPath id="clip-20">
<path clip-rule="nonzero" d="M 41.152344 57 L 617.605469 57 L 617.605469 59 L 41.152344 59 Z M 41.152344 57 "/>
</clipPath>
<clipPath id="clip-21">
<path clip-rule="nonzero" d="M 306 23.957031 L 308 23.957031 L 308 399.847656 L 306 399.847656 Z M 306 23.957031 "/>
</clipPath>
<clipPath id="clip-22">
<path clip-rule="nonzero" d="M 432 23.957031 L 434 23.957031 L 434 399.847656 L 432 399.847656 Z M 432 23.957031 "/>
</clipPath>
</defs>
<rect x="-72" y="-43.2" width="864" height="518.4" fill="rgb(100%, 100%, 100%)" fill-opacity="1"/>
<rect x="-72" y="-43.2" width="864" height="518.4" fill="rgb(100%, 100%, 100%)" fill-opacity="1"/>
<path fill="none" stroke-width="1.066978" stroke-linecap="round" stroke-linejoin="round" stroke="rgb(100%, 100%, 100%)" stroke-opacity="1" stroke-miterlimit="10" d="M 0 432 L 720 432 L 720 0 L 0 0 Z M 0 432 "/>
<g clip-path="url(#clip-0)">
<path fill-rule="nonzero" fill="rgb(92.156863%, 92.156863%, 92.156863%)" fill-opacity="1" d="M 41.152344 399.847656 L 617.605469 399.847656 L 617.605469 23.957031 L 41.152344 23.957031 Z M 41.152344 399.847656 "/>
</g>
<g clip-path="url(#clip-1)">
<path fill="none" stroke-width="0.533489" stroke-linecap="butt" stroke-linejoin="round" stroke="rgb(100%, 100%, 100%)" stroke-opacity="1" stroke-miterlimit="10" d="M 41.152344 340.046875 L 617.601562 340.046875 "/>
</g>
<g clip-path="url(#clip-2)">
<path fill="none" stroke-width="0.533489" stroke-linecap="butt" stroke-linejoin="round" stroke="rgb(100%, 100%, 100%)" stroke-opacity="1" stroke-miterlimit="10" d="M 41.152344 254.617188 L 617.601562 254.617188 "/>
</g>
<g clip-path="url(#clip-3)">
<path fill="none" stroke-width="0.533489" stroke-linecap="butt" stroke-linejoin="round" stroke="rgb(100%, 100%, 100%)" stroke-opacity="1" stroke-miterlimit="10" d="M 41.152344 169.1875 L 617.601562 169.1875 "/>
</g>
<g clip-path="url(#clip-4)">
<path fill="none" stroke-width="0.533489" stroke-linecap="butt" stroke-linejoin="round" stroke="rgb(100%, 100%, 100%)" stroke-opacity="1" stroke-miterlimit="10" d="M 41.152344 83.757812 L 617.601562 83.757812 "/>
</g>
<g clip-path="url(#clip-5)">
<path fill="none" stroke-width="0.533489" stroke-linecap="butt" stroke-linejoin="round" stroke="rgb(100%, 100%, 100%)" stroke-opacity="1" stroke-miterlimit="10" d="M 106.65625 399.847656 L 106.65625 23.957031 "/>
</g>
<g clip-path="url(#clip-6)">
<path fill="none" stroke-width="0.533489" stroke-linecap="butt" stroke-linejoin="round" stroke="rgb(100%, 100%, 100%)" stroke-opacity="1" stroke-miterlimit="10" d="M 237.667969 399.847656 L 237.667969 23.957031 "/>
</g>
<g clip-path="url(#clip-7)">
<path fill="none" stroke-width="0.533489" stroke-linecap="butt" stroke-linejoin="round" stroke="rgb(100%, 100%, 100%)" stroke-opacity="1" stroke-miterlimit="10" d="M 368.679688 399.847656 L 368.679688 23.957031 "/>
</g>
<g clip-path="url(#clip-8)">
<path fill="none" stroke-width="0.533489" stroke-linecap="butt" stroke-linejoin="round" stroke="rgb(100%, 100%, 100%)" stroke-opacity="1" stroke-miterlimit="10" d="M 499.691406 399.847656 L 499.691406 23.957031 "/>
</g>
<g clip-path="url(#clip-9)">
<path fill="none" stroke-width="1.066978" stroke-linecap="butt" stroke-linejoin="round" stroke="rgb(100%, 100%, 100%)" stroke-opacity="1" stroke-miterlimit="10" d="M 41.152344 382.761719 L 617.601562 382.761719 "/>
</g>
<g clip-path="url(#clip-10)">
<path fill="none" stroke-width="1.066978" stroke-linecap="butt" stroke-linejoin="round" stroke="rgb(100%, 100%, 100%)" stroke-opacity="1" stroke-miterlimit="10" d="M 41.152344 297.332031 L 617.601562 297.332031 "/>
</g>
<g clip-path="url(#clip-11)">
<path fill="none" stroke-width="1.066978" stroke-linecap="butt" stroke-linejoin="round" stroke="rgb(100%, 100%, 100%)" stroke-opacity="1" stroke-miterlimit="10" d="M 41.152344 211.902344 L 617.601562 211.902344 "/>
</g>
<g clip-path="url(#clip-12)">
<path fill="none" stroke-width="1.066978" stroke-linecap="butt" stroke-linejoin="round" stroke="rgb(100%, 100%, 100%)" stroke-opacity="1" stroke-miterlimit="10" d="M 41.152344 126.472656 L 617.601562 126.472656 "/>
</g>
<g clip-path="url(#clip-13)">
<path fill="none" stroke-width="1.066978" stroke-linecap="butt" stroke-linejoin="round" stroke="rgb(100%, 100%, 100%)" stroke-opacity="1" stroke-miterlimit="10" d="M 41.152344 41.042969 L 617.601562 41.042969 "/>
</g>
<g clip-path="url(#clip-14)">
<path fill="none" stroke-width="1.066978" stroke-linecap="butt" stroke-linejoin="round" stroke="rgb(100%, 100%, 100%)" stroke-opacity="1" stroke-miterlimit="10" d="M 41.152344 399.847656 L 41.152344 23.957031 "/>
</g>
<g clip-path="url(#clip-15)">
<path fill="none" stroke-width="1.066978" stroke-linecap="butt" stroke-linejoin="round" stroke="rgb(100%, 100%, 100%)" stroke-opacity="1" stroke-miterlimit="10" d="M 172.164062 399.847656 L 172.164062 23.957031 "/>
</g>
<g clip-path="url(#clip-16)">
<path fill="none" stroke-width="1.066978" stroke-linecap="butt" stroke-linejoin="round" stroke="rgb(100%, 100%, 100%)" stroke-opacity="1" stroke-miterlimit="10" d="M 303.175781 399.847656 L 303.175781 23.957031 "/>
</g>
<g clip-path="url(#clip-17)">
<path fill="none" stroke-width="1.066978" stroke-linecap="butt" stroke-linejoin="round" stroke="rgb(100%, 100%, 100%)" stroke-opacity="1" stroke-miterlimit="10" d="M 434.1875 399.847656 L 434.1875 23.957031 "/>
</g>
<g clip-path="url(#clip-18)">
<path fill="none" stroke-width="1.066978" stroke-linecap="butt" stroke-linejoin="round" stroke="rgb(100%, 100%, 100%)" stroke-opacity="1" stroke-miterlimit="10" d="M 565.199219 399.847656 L 565.199219 23.957031 "/>
</g>
<path fill="none" stroke-width="1.066978" stroke-linecap="butt" stroke-linejoin="round" stroke="rgb(83.529412%, 36.862745%, 0%)" stroke-opacity="1" stroke-miterlimit="10" d="M 67.351562 382.761719 L 208.847656 382.761719 L 214.085938 382.757812 L 219.328125 382.753906 L 224.566406 382.742188 L 229.808594 382.730469 L 235.046875 382.703125 L 240.289062 382.660156 L 245.527344 382.59375 L 250.769531 382.488281 L 256.011719 382.320312 L 261.25 382.066406 L 266.492188 381.691406 L 271.730469 381.136719 L 276.972656 380.339844 L 282.210938 379.222656 L 287.453125 377.679688 L 292.695312 375.59375 L 297.933594 372.828125 L 303.175781 369.226562 L 308.414062 364.632812 L 313.65625 358.890625 L 318.894531 351.84375 L 324.136719 343.367188 L 329.375 333.363281 L 334.617188 321.785156 L 339.859375 308.640625 L 345.097656 294 L 350.339844 278.007812 L 355.578125 260.871094 L 360.820312 242.851562 L 366.058594 224.265625 L 371.300781 205.457031 L 376.539062 186.785156 L 381.78125 168.59375 L 387.023438 151.203125 L 392.261719 134.890625 L 397.503906 119.878906 L 402.742188 106.320312 L 407.984375 94.300781 L 413.222656 83.847656 L 418.464844 74.925781 L 423.707031 67.445312 L 428.945312 61.296875 L 434.1875 56.335938 L 439.425781 52.40625 L 444.667969 49.347656 L 449.90625 47.015625 L 455.148438 45.269531 L 460.386719 43.980469 L 465.628906 43.054688 L 470.871094 42.394531 L 476.109375 41.9375 L 481.351562 41.625 L 486.589844 41.417969 L 491.832031 41.277344 L 497.070312 41.1875 L 502.3125 41.132812 L 507.554688 41.097656 L 512.792969 41.074219 L 518.035156 41.0625 L 523.273438 41.054688 L 528.515625 41.050781 L 533.753906 41.046875 L 559.957031 41.046875 L 565.199219 41.042969 L 591.398438 41.042969 "/>
<path fill="none" stroke-width="1.066978" stroke-linecap="butt" stroke-linejoin="round" stroke="rgb(0%, 44.705882%, 69.803922%)" stroke-opacity="1" stroke-miterlimit="10" d="M 67.351562 41.042969 L 182.644531 41.042969 L 187.882812 41.046875 L 208.847656 41.046875 L 214.085938 41.050781 L 219.328125 41.054688 L 224.566406 41.0625 L 229.808594 41.074219 L 235.046875 41.097656 L 240.289062 41.136719 L 245.527344 41.195312 L 250.769531 41.292969 L 256.011719 41.445312 L 261.25 41.675781 L 266.492188 42.023438 L 271.730469 42.53125 L 276.972656 43.269531 L 282.210938 44.308594 L 287.453125 45.746094 L 292.695312 47.703125 L 297.933594 50.308594 L 303.175781 53.710938 L 308.414062 58.070312 L 313.65625 63.546875 L 318.894531 70.296875 L 324.136719 78.449219 L 329.375 88.109375 L 334.617188 99.339844 L 339.859375 112.140625 L 345.097656 126.460938 L 350.339844 142.167969 L 355.578125 159.070312 L 360.820312 176.917969 L 366.058594 195.40625 L 371.300781 214.195312 L 376.539062 232.925781 L 381.78125 251.25 L 387.023438 268.84375 L 392.261719 285.410156 L 397.503906 300.726562 L 402.742188 314.613281 L 407.984375 326.976562 L 413.222656 337.777344 L 418.464844 347.03125 L 423.707031 354.820312 L 428.945312 361.253906 L 434.1875 366.464844 L 439.425781 370.609375 L 444.667969 373.847656 L 449.90625 376.328125 L 455.148438 378.195312 L 460.386719 379.574219 L 465.628906 380.574219 L 470.871094 381.285156 L 476.109375 381.78125 L 481.351562 382.121094 L 486.589844 382.351562 L 491.832031 382.503906 L 497.070312 382.601562 L 502.3125 382.664062 L 507.554688 382.703125 L 512.792969 382.730469 L 518.035156 382.742188 L 523.273438 382.753906 L 528.515625 382.757812 L 533.753906 382.761719 L 591.398438 382.761719 "/>
<g clip-path="url(#clip-19)">
<path fill="none" stroke-width="1.066978" stroke-linecap="butt" stroke-linejoin="round" stroke="rgb(0%, 0%, 0%)" stroke-opacity="1" stroke-miterlimit="10" d="M 41.152344 365.675781 L 617.601562 365.675781 "/>
</g>
<g clip-path="url(#clip-20)">
<path fill="none" stroke-width="1.066978" stroke-linecap="butt" stroke-linejoin="round" stroke="rgb(0%, 0%, 0%)" stroke-opacity="1" stroke-miterlimit="10" d="M 41.152344 58.128906 L 617.601562 58.128906 "/>
</g>
<g clip-path="url(#clip-21)">
<path fill="none" stroke-width="1.066978" stroke-linecap="butt" stroke-linejoin="round" stroke="rgb(0%, 0%, 0%)" stroke-opacity="1" stroke-dasharray="1.066978 3.200935" stroke-miterlimit="10" d="M 307.328125 399.847656 L 307.328125 23.957031 "/>
</g>
<g clip-path="url(#clip-22)">
<path fill="none" stroke-width="1.066978" stroke-linecap="butt" stroke-linejoin="round" stroke="rgb(0%, 0%, 0%)" stroke-opacity="1" stroke-dasharray="1.066978 3.200935" stroke-miterlimit="10" d="M 433.316406 399.847656 L 433.316406 23.957031 "/>
</g>
<g fill="rgb(30.196078%, 30.196078%, 30.196078%)" fill-opacity="1">
<use xlink:href="#glyph-0-1" x="19.21875" y="386.038086"/>
<use xlink:href="#glyph-0-2" x="24.21875" y="386.038086"/>
<use xlink:href="#glyph-0-1" x="26.21875" y="386.038086"/>
<use xlink:href="#glyph-0-1" x="31.21875" y="386.038086"/>
</g>
<g fill="rgb(30.196078%, 30.196078%, 30.196078%)" fill-opacity="1">
<use xlink:href="#glyph-0-1" x="19.21875" y="300.608398"/>
<use xlink:href="#glyph-0-2" x="24.21875" y="300.608398"/>
<use xlink:href="#glyph-0-3" x="26.21875" y="300.608398"/>
<use xlink:href="#glyph-0-4" x="31.21875" y="300.608398"/>
</g>
<g fill="rgb(30.196078%, 30.196078%, 30.196078%)" fill-opacity="1">
<use xlink:href="#glyph-0-1" x="19.21875" y="215.178711"/>
<use xlink:href="#glyph-0-2" x="24.21875" y="215.178711"/>
<use xlink:href="#glyph-0-4" x="26.21875" y="215.178711"/>
<use xlink:href="#glyph-0-1" x="31.21875" y="215.178711"/>
</g>
<g fill="rgb(30.196078%, 30.196078%, 30.196078%)" fill-opacity="1">
<use xlink:href="#glyph-0-1" x="19.21875" y="129.749023"/>
<use xlink:href="#glyph-0-2" x="24.21875" y="129.749023"/>
<use xlink:href="#glyph-0-5" x="26.21875" y="129.749023"/>
<use xlink:href="#glyph-0-4" x="31.21875" y="129.749023"/>
</g>
<g fill="rgb(30.196078%, 30.196078%, 30.196078%)" fill-opacity="1">
<use xlink:href="#glyph-0-6" x="19.21875" y="44.319336"/>
<use xlink:href="#glyph-0-2" x="24.21875" y="44.319336"/>
<use xlink:href="#glyph-0-1" x="26.21875" y="44.319336"/>
<use xlink:href="#glyph-0-1" x="31.21875" y="44.319336"/>
</g>
<path fill="none" stroke-width="1.066978" stroke-linecap="butt" stroke-linejoin="round" stroke="rgb(20%, 20%, 20%)" stroke-opacity="1" stroke-miterlimit="10" d="M 38.410156 382.761719 L 41.152344 382.761719 "/>
<path fill="none" stroke-width="1.066978" stroke-linecap="butt" stroke-linejoin="round" stroke="rgb(20%, 20%, 20%)" stroke-opacity="1" stroke-miterlimit="10" d="M 38.410156 297.332031 L 41.152344 297.332031 "/>
<path fill="none" stroke-width="1.066978" stroke-linecap="butt" stroke-linejoin="round" stroke="rgb(20%, 20%, 20%)" stroke-opacity="1" stroke-miterlimit="10" d="M 38.410156 211.902344 L 41.152344 211.902344 "/>
<path fill="none" stroke-width="1.066978" stroke-linecap="butt" stroke-linejoin="round" stroke="rgb(20%, 20%, 20%)" stroke-opacity="1" stroke-miterlimit="10" d="M 38.410156 126.472656 L 41.152344 126.472656 "/>
<path fill="none" stroke-width="1.066978" stroke-linecap="butt" stroke-linejoin="round" stroke="rgb(20%, 20%, 20%)" stroke-opacity="1" stroke-miterlimit="10" d="M 38.410156 41.042969 L 41.152344 41.042969 "/>
<path fill="none" stroke-width="1.066978" stroke-linecap="butt" stroke-linejoin="round" stroke="rgb(20%, 20%, 20%)" stroke-opacity="1" stroke-miterlimit="10" d="M 41.152344 402.589844 L 41.152344 399.847656 "/>
<path fill="none" stroke-width="1.066978" stroke-linecap="butt" stroke-linejoin="round" stroke="rgb(20%, 20%, 20%)" stroke-opacity="1" stroke-miterlimit="10" d="M 172.164062 402.589844 L 172.164062 399.847656 "/>
<path fill="none" stroke-width="1.066978" stroke-linecap="butt" stroke-linejoin="round" stroke="rgb(20%, 20%, 20%)" stroke-opacity="1" stroke-miterlimit="10" d="M 303.175781 402.589844 L 303.175781 399.847656 "/>
<path fill="none" stroke-width="1.066978" stroke-linecap="butt" stroke-linejoin="round" stroke="rgb(20%, 20%, 20%)" stroke-opacity="1" stroke-miterlimit="10" d="M 434.1875 402.589844 L 434.1875 399.847656 "/>
<path fill="none" stroke-width="1.066978" stroke-linecap="butt" stroke-linejoin="round" stroke="rgb(20%, 20%, 20%)" stroke-opacity="1" stroke-miterlimit="10" d="M 565.199219 402.589844 L 565.199219 399.847656 "/>
<g fill="rgb(30.196078%, 30.196078%, 30.196078%)" fill-opacity="1">
<use xlink:href="#glyph-0-1" x="30.152344" y="411.557617"/>
<use xlink:href="#glyph-0-2" x="35.152344" y="411.557617"/>
<use xlink:href="#glyph-0-7" x="37.152344" y="411.557617"/>
<use xlink:href="#glyph-0-3" x="42.152344" y="411.557617"/>
<use xlink:href="#glyph-0-4" x="47.152344" y="411.557617"/>
</g>
<g fill="rgb(30.196078%, 30.196078%, 30.196078%)" fill-opacity="1">
<use xlink:href="#glyph-0-1" x="161.164062" y="411.557617"/>
<use xlink:href="#glyph-0-2" x="166.164062" y="411.557617"/>
<use xlink:href="#glyph-0-7" x="168.164062" y="411.557617"/>
<use xlink:href="#glyph-0-4" x="173.164062" y="411.557617"/>
<use xlink:href="#glyph-0-1" x="178.164062" y="411.557617"/>
</g>
<g fill="rgb(30.196078%, 30.196078%, 30.196078%)" fill-opacity="1">
<use xlink:href="#glyph-0-1" x="292.175781" y="411.557617"/>
<use xlink:href="#glyph-0-2" x="297.175781" y="411.557617"/>
<use xlink:href="#glyph-0-7" x="299.175781" y="411.557617"/>
<use xlink:href="#glyph-0-5" x="304.175781" y="411.557617"/>
<use xlink:href="#glyph-0-4" x="309.175781" y="411.557617"/>
</g>
<g fill="rgb(30.196078%, 30.196078%, 30.196078%)" fill-opacity="1">
<use xlink:href="#glyph-0-1" x="423.1875" y="411.557617"/>
<use xlink:href="#glyph-0-2" x="428.1875" y="411.557617"/>
<use xlink:href="#glyph-0-8" x="430.1875" y="411.557617"/>
<use xlink:href="#glyph-0-1" x="435.1875" y="411.557617"/>
<use xlink:href="#glyph-0-1" x="440.1875" y="411.557617"/>
</g>
<g fill="rgb(30.196078%, 30.196078%, 30.196078%)" fill-opacity="1">
<use xlink:href="#glyph-0-1" x="554.199219" y="411.557617"/>
<use xlink:href="#glyph-0-2" x="559.199219" y="411.557617"/>
<use xlink:href="#glyph-0-8" x="561.199219" y="411.557617"/>
<use xlink:href="#glyph-0-3" x="566.199219" y="411.557617"/>
<use xlink:href="#glyph-0-4" x="571.199219" y="411.557617"/>
</g>
<g fill="rgb(0%, 0%, 0%)" fill-opacity="1">
<use xlink:href="#glyph-1-1" x="325.875" y="421.579102"/>
</g>
<g fill="rgb(0%, 0%, 0%)" fill-opacity="1">
<use xlink:href="#glyph-2-1" x="12.951172" y="236.902344"/>
<use xlink:href="#glyph-2-2" x="12.951172" y="229.902344"/>
<use xlink:href="#glyph-2-3" x="12.951172" y="225.902344"/>
<use xlink:href="#glyph-2-4" x="12.951172" y="219.902344"/>
<use xlink:href="#glyph-2-5" x="12.951172" y="213.902344"/>
<use xlink:href="#glyph-2-4" x="12.951172" y="207.902344"/>
<use xlink:href="#glyph-2-6" x="12.951172" y="201.902344"/>
<use xlink:href="#glyph-2-7" x="12.951172" y="199.902344"/>
<use xlink:href="#glyph-2-6" x="12.951172" y="197.902344"/>
<use xlink:href="#glyph-2-8" x="12.951172" y="195.902344"/>
<use xlink:href="#glyph-2-9" x="12.951172" y="192.902344"/>
</g>
<path fill-rule="nonzero" fill="rgb(100%, 100%, 100%)" fill-opacity="1" d="M 628.5625 242.902344 L 714.519531 242.902344 L 714.519531 180.902344 L 628.5625 180.902344 Z M 628.5625 242.902344 "/>
<g fill="rgb(0%, 0%, 0%)" fill-opacity="1">
<use xlink:href="#glyph-3-1" x="634.042969" y="195.353516"/>
<use xlink:href="#glyph-3-2" x="643.042969" y="195.353516"/>
<use xlink:href="#glyph-3-3" x="647.042969" y="195.353516"/>
<use xlink:href="#glyph-3-4" x="653.042969" y="195.353516"/>
<use xlink:href="#glyph-3-5" x="659.042969" y="195.353516"/>
<use xlink:href="#glyph-3-3" x="662.042969" y="195.353516"/>
<use xlink:href="#glyph-3-2" x="668.042969" y="195.353516"/>
<use xlink:href="#glyph-3-6" x="672.042969" y="195.353516"/>
<use xlink:href="#glyph-3-7" x="675.042969" y="195.353516"/>
<use xlink:href="#glyph-3-3" x="681.042969" y="195.353516"/>
<use xlink:href="#glyph-3-8" x="687.042969" y="195.353516"/>
<use xlink:href="#glyph-3-8" x="693.042969" y="195.353516"/>
<use xlink:href="#glyph-3-3" x="699.042969" y="195.353516"/>
<use xlink:href="#glyph-3-2" x="705.042969" y="195.353516"/>
</g>
<path fill-rule="nonzero" fill="rgb(92.156863%, 92.156863%, 92.156863%)" fill-opacity="1" d="M 634.042969 220.144531 L 651.324219 220.144531 L 651.324219 202.863281 L 634.042969 202.863281 Z M 634.042969 220.144531 "/>
<path fill="none" stroke-width="1.066978" stroke-linecap="butt" stroke-linejoin="round" stroke="rgb(83.529412%, 36.862745%, 0%)" stroke-opacity="1" stroke-miterlimit="10" d="M 635.769531 211.503906 L 649.59375 211.503906 "/>
<path fill-rule="nonzero" fill="rgb(92.156863%, 92.156863%, 92.156863%)" fill-opacity="1" d="M 634.042969 237.425781 L 651.324219 237.425781 L 651.324219 220.144531 L 634.042969 220.144531 Z M 634.042969 237.425781 "/>
<path fill="none" stroke-width="1.066978" stroke-linecap="butt" stroke-linejoin="round" stroke="rgb(0%, 44.705882%, 69.803922%)" stroke-opacity="1" stroke-miterlimit="10" d="M 635.769531 228.785156 L 649.59375 228.785156 "/>
<g fill="rgb(0%, 0%, 0%)" fill-opacity="1">
<use xlink:href="#glyph-0-9" x="656.800781" y="214.780273"/>
<use xlink:href="#glyph-0-10" x="661.800781" y="214.780273"/>
<use xlink:href="#glyph-0-10" x="665.800781" y="214.780273"/>
<use xlink:href="#glyph-0-2" x="670.800781" y="214.780273"/>
<use xlink:href="#glyph-0-11" x="672.800781" y="214.780273"/>
<use xlink:href="#glyph-0-12" x="678.800781" y="214.780273"/>
<use xlink:href="#glyph-0-13" x="680.800781" y="214.780273"/>
<use xlink:href="#glyph-0-14" x="685.800781" y="214.780273"/>
</g>
<g fill="rgb(0%, 0%, 0%)" fill-opacity="1">
<use xlink:href="#glyph-0-9" x="656.800781" y="232.061523"/>
<use xlink:href="#glyph-0-10" x="661.800781" y="232.061523"/>
<use xlink:href="#glyph-0-10" x="665.800781" y="232.061523"/>
<use xlink:href="#glyph-0-2" x="670.800781" y="232.061523"/>
<use xlink:href="#glyph-0-15" x="672.800781" y="232.061523"/>
<use xlink:href="#glyph-0-10" x="677.800781" y="232.061523"/>
<use xlink:href="#glyph-0-16" x="682.800781" y="232.061523"/>
</g>
<g fill="rgb(0%, 0%, 0%)" fill-opacity="1">
<use xlink:href="#glyph-4-1" x="41.152344" y="14.644531"/>
<use xlink:href="#glyph-4-2" x="51.152344" y="14.644531"/>
<use xlink:href="#glyph-4-3" x="58.152344" y="14.644531"/>
<use xlink:href="#glyph-4-4" x="61.152344" y="14.644531"/>
<use xlink:href="#glyph-4-5" x="68.152344" y="14.644531"/>
<use xlink:href="#glyph-4-6" x="75.152344" y="14.644531"/>
<use xlink:href="#glyph-4-7" x="79.152344" y="14.644531"/>
<use xlink:href="#glyph-4-8" x="83.152344" y="14.644531"/>
<use xlink:href="#glyph-4-9" x="90.152344" y="14.644531"/>
<use xlink:href="#glyph-4-6" x="97.152344" y="14.644531"/>
<use xlink:href="#glyph-4-10" x="101.152344" y="14.644531"/>
<use xlink:href="#glyph-4-3" x="110.152344" y="14.644531"/>
<use xlink:href="#glyph-4-4" x="113.152344" y="14.644531"/>
<use xlink:href="#glyph-4-11" x="120.152344" y="14.644531"/>
<use xlink:href="#glyph-4-12" x="127.152344" y="14.644531"/>
<use xlink:href="#glyph-4-3" x="138.152344" y="14.644531"/>
<use xlink:href="#glyph-4-13" x="141.152344" y="14.644531"/>
<use xlink:href="#glyph-4-14" x="148.152344" y="14.644531"/>
<use xlink:href="#glyph-4-6" x="151.152344" y="14.644531"/>
<use xlink:href="#glyph-4-7" x="155.152344" y="14.644531"/>
<use xlink:href="#glyph-4-11" x="159.152344" y="14.644531"/>
<use xlink:href="#glyph-4-6" x="166.152344" y="14.644531"/>
<use xlink:href="#glyph-4-15" x="170.152344" y="14.644531"/>
<use xlink:href="#glyph-4-9" x="179.152344" y="14.644531"/>
<use xlink:href="#glyph-4-13" x="186.152344" y="14.644531"/>
<use xlink:href="#glyph-4-16" x="193.152344" y="14.644531"/>
<use xlink:href="#glyph-4-17" x="197.152344" y="14.644531"/>
<use xlink:href="#glyph-4-8" x="204.152344" y="14.644531"/>
</g>
</svg>
